<svg xmlns="http://www.w3.org/2000/svg" viewBox="0 0 1280 720" role="img" aria-labelledby="title desc">
  <title id="title">WOL Reader thumbnail</title>
  <desc id="desc">Dark blue reading interface with date controls, daily text, and audio playback button.</desc>
  <defs>
    <linearGradient id="bg" x1="0" y1="0" x2="1" y2="1">
      <stop offset="0" stop-color="#1a1a2e"/>
      <stop offset="1" stop-color="#0f172d"/>
    </linearGradient>
    <linearGradient id="panel" x1="0" y1="0" x2="0" y2="1">
      <stop offset="0" stop-color="#1b2c51"/>
      <stop offset="1" stop-color="#16213e"/>
    </linearGradient>
    <filter id="shadow" x="-20%" y="-20%" width="140%" height="140%">
      <feDropShadow dx="0" dy="22" stdDeviation="24" flood-color="#020612" flood-opacity="0.36"/>
    </filter>
  </defs>
  <rect width="1280" height="720" fill="url(#bg)"/>
  <path d="M0 605 C210 538 303 641 493 592 C676 544 737 400 932 421 C1089 438 1168 528 1280 479 L1280 720 L0 720 Z" fill="#101936"/>
  <g filter="url(#shadow)">
    <rect x="253" y="76" width="774" height="568" rx="36" fill="#111a32"/>
    <rect x="288" y="112" width="704" height="496" rx="22" fill="url(#panel)" stroke="#2a7a9e" stroke-width="3"/>
  </g>
  <text x="640" y="174" text-anchor="middle" fill="#4fc3f7" font-family="monospace" font-size="54" font-weight="700">Texto del Dia</text>
  <g fill="#16213e" stroke="#2a7a9e" stroke-width="3">
    <rect x="400" y="206" width="82" height="82" rx="14"/>
    <rect x="798" y="206" width="82" height="82" rx="14"/>
  </g>
  <g fill="none" stroke="#4fc3f7" stroke-width="12" stroke-linecap="round" stroke-linejoin="round">
    <path d="M450 232 L426 247 L450 262"/>
    <path d="M830 232 L854 247 L830 262"/>
  </g>
  <text x="640" y="258" text-anchor="middle" fill="#8888aa" font-family="monospace" font-size="28">Sabado, 16 de mayo</text>
  <rect x="348" y="327" width="584" height="174" rx="18" fill="#16213e"/>
  <text x="386" y="379" fill="#4fc3f7" font-family="monospace" font-size="31" font-style="italic">Lectura diaria</text>
  <rect x="386" y="414" width="508" height="12" rx="6" fill="#53617f"/>
  <rect x="386" y="447" width="458" height="12" rx="6" fill="#53617f"/>
  <rect x="386" y="480" width="331" height="12" rx="6" fill="#53617f"/>
  <g>
    <rect x="476" y="536" width="328" height="70" rx="14" fill="#2a7a9e"/>
    <path d="M558 557 L558 585 L584 571 Z" fill="#e0e0e0"/>
    <text x="618" y="580" fill="#e0e0e0" font-family="monospace" font-size="28" font-weight="700">Leer en voz alta</text>
  </g>
</svg>
